# xmcd
#
# Track frame offsets:
#	180
#	16964
#	32744
#	48718
#	64905
#	79741
#	90232
#	104845
#
# Disc length: 1612
#
# Revision: 1
# Processed by: cddbd v1.5.1PL0 Copyright (c) Steve Scherf et al.
# Submitted via: FreeRIP 2.10 
# Normalized: r0:TDELIM( - )
#
DISCID=63064a08
DTITLE=Various Artist - Today's Country Hits
DYEAR=1900
DGENRE=Country
TTITLE0=David Kersh - Breaking Hearts And Taking Names
TTITLE1=Jo Dee Messina - Heads Carolina, Tails California
TTITLE2=Junior Brown - I Hung It Up
TTITLE3=Jeff Carson - The Car
TTITLE4=Burnin' Daylight - Love Worth Fighting For
TTITLE5=Hank Williams Jr. - Move It On Over
TTITLE6=Hal Ketchum - I Miss My Mary
TTITLE7=Tim McGraw - All I Want Is A Life
EXTD=
EXTT0=
EXTT1=
EXTT2=
EXTT3=
EXTT4=
EXTT5=
EXTT6=
EXTT7=
PLAYORDER=
